<?xml version="1.0" encoding="UTF-8" standalone="no"?>
<!DOCTYPE svg PUBLIC "-//W3C//DTD SVG 1.1//EN" "http://www.w3.org/Graphics/SVG/1.1/DTD/svg11.dtd">
<svg width="100%" height="100%" viewBox="0 0 255 255" version="1.1" xmlns="http://www.w3.org/2000/svg" xmlns:xlink="http://www.w3.org/1999/xlink" xml:space="preserve" xmlns:serif="http://www.serif.com/" style="fill-rule:evenodd;clip-rule:evenodd;stroke-linejoin:round;stroke-miterlimit:2;">
    <g transform="matrix(1,0,0,1,-227.138,-312.698)">
        <g id="Icon" transform="matrix(1,0,0,1,-91.2227,-45.6689)">
            <g id="facebg" transform="matrix(1.02849,0,0,1.02849,77.9596,22.195)">
                <circle cx="357.516" cy="450.634" r="117.378" style="fill:rgb(248,217,81);"/>
            </g>
            <g id="circle" transform="matrix(0.670607,0,0,0.670607,23.1732,77.0117)">
                <path d="M630.011,419.552C525.24,419.552 440.179,504.613 440.179,609.384C440.179,714.155 525.24,799.215 630.011,799.215C734.782,799.215 819.842,714.155 819.842,609.384C819.842,504.613 734.782,419.552 630.011,419.552ZM630.011,438.938C724.082,438.938 800.457,515.312 800.457,609.384C800.457,703.456 724.082,779.83 630.011,779.83C535.939,779.83 459.565,703.456 459.565,609.384C459.565,515.312 535.939,438.938 630.011,438.938Z" style="fill:rgb(48,49,50);"/>
            </g>
            <g id="eyes" transform="matrix(1,0,0,1,-2.97655,33.8566)">
                <g transform="matrix(141.604,0,0,141.604,343.726,436.089)">
                    <path d="M0.342,-0.315C0.458,-0.315 0.449,-0.25 0.449,-0.295C0.449,-0.327 0.44,-0.352 0.422,-0.371C0.403,-0.39 0.378,-0.399 0.346,-0.399C0.308,-0.399 0.277,-0.385 0.253,-0.357C0.229,-0.329 0.217,-0.292 0.217,-0.247C0.217,-0.215 0.245,-0.314 0.342,-0.315Z" style="fill:rgb(48,49,50);fill-rule:nonzero;"/>
                </g>
                <g transform="matrix(-141.604,0,0,141.604,553.553,436.089)">
                    <path d="M0.342,-0.315C0.458,-0.315 0.449,-0.25 0.449,-0.295C0.449,-0.327 0.44,-0.352 0.422,-0.371C0.403,-0.39 0.378,-0.399 0.346,-0.399C0.308,-0.399 0.277,-0.385 0.253,-0.357C0.229,-0.329 0.217,-0.292 0.217,-0.247C0.217,-0.215 0.245,-0.314 0.342,-0.315Z" style="fill:rgb(48,49,50);fill-rule:nonzero;"/>
                </g>
            </g>
            <g id="thanky" transform="matrix(0.900754,0,0,0.900754,44.2303,51.7407)">
                <g transform="matrix(1,0,0,1.34975,-5.45417,-174.375)">
                    <path d="M537.493,456.764L364.741,456.764L364.741,503.308C364.741,510.004 372.079,515.44 381.116,515.44L521.118,515.44C530.156,515.44 537.493,510.004 537.493,503.308L537.493,456.764Z" style="fill:rgb(246,245,235);"/>
                </g>
                <g transform="matrix(0.754039,0,0,0.480527,57.7903,111.469)">
                    <g transform="matrix(1.11018,0,0,1.11018,52.17,-6.74085)">
                        <rect x="313.167" y="629.735" width="41.273" height="43.835" style="fill:rgb(75,56,92);"/>
                    </g>
                    <g transform="matrix(1.11018,0,0,1.11018,97.9904,-6.74085)">
                        <rect x="313.167" y="629.735" width="41.273" height="43.835" style="fill:rgb(60,85,107);"/>
                    </g>
                    <g transform="matrix(1.11018,0,0,1.11018,143.811,-6.74085)">
                        <rect x="313.167" y="629.735" width="41.273" height="43.835" style="fill:rgb(90,158,122);"/>
                    </g>
                    <g transform="matrix(1.11018,0,0,1.11018,189.631,-6.74085)">
                        <rect x="313.167" y="629.735" width="41.273" height="43.835" style="fill:rgb(242,255,141);"/>
                    </g>
                    <g transform="matrix(1.11018,0,0,1.11018,235.451,-6.74085)">
                        <rect x="313.167" y="629.735" width="41.273" height="43.835" style="fill:rgb(248,217,81);"/>
                    </g>
                </g>
                <g transform="matrix(1.11018,0,0,1.11018,52.17,-6.74085)">
                    <path d="M435.494,404.331C435.494,402.536 434.038,401.081 432.244,401.081L276.637,401.081C274.842,401.081 273.387,402.536 273.387,404.331L273.387,460.919C273.387,470.854 281.452,478.919 291.386,478.919C291.386,478.919 417.494,478.919 417.494,478.919C427.428,478.919 435.494,470.854 435.494,460.919C435.494,460.919 435.494,404.331 435.494,404.331ZM428.994,430.479L428.994,460.919C428.994,467.266 423.841,472.419 417.494,472.419L291.386,472.419C285.04,472.419 279.887,467.266 279.887,460.919L279.887,430.479L428.994,430.479ZM428.994,423.979L279.887,423.979L279.887,407.581L428.994,407.581L428.994,423.979Z" style="fill:rgb(48,49,50);"/>
                </g>
            </g>
        </g>
    </g>
</svg>
