<?xml version="1.0" encoding="UTF-8" standalone="no"?>
<!DOCTYPE svg PUBLIC "-//W3C//DTD SVG 1.1//EN" "http://www.w3.org/Graphics/SVG/1.1/DTD/svg11.dtd">
<svg width="100%" height="100%" viewBox="0 0 980 255" version="1.1" xmlns="http://www.w3.org/2000/svg" xmlns:xlink="http://www.w3.org/1999/xlink" xml:space="preserve" xmlns:serif="http://www.serif.com/" style="fill-rule:evenodd;clip-rule:evenodd;stroke-linejoin:round;stroke-miterlimit:2;">
    <g transform="matrix(1,0,0,1,-227.138,-312.698)">
        <g class="Logo__icon" transform="matrix(1,0,0,1,-91.2227,-45.6689)">
            <g id="facebg" transform="matrix(1.02849,0,0,1.02849,77.9596,22.195)">
                <circle cx="357.516" cy="450.634" r="117.378" style="fill:rgb(248,217,81);"/>
            </g>
            <g id="circle" transform="matrix(0.670607,0,0,0.670607,23.1732,77.0117)">
                <path d="M630.011,419.552C525.24,419.552 440.179,504.613 440.179,609.384C440.179,714.155 525.24,799.215 630.011,799.215C734.782,799.215 819.842,714.155 819.842,609.384C819.842,504.613 734.782,419.552 630.011,419.552ZM630.011,438.938C724.082,438.938 800.457,515.312 800.457,609.384C800.457,703.456 724.082,779.83 630.011,779.83C535.939,779.83 459.565,703.456 459.565,609.384C459.565,515.312 535.939,438.938 630.011,438.938Z" style="fill:rgb(48,49,50);"/>
            </g>
            <g id="eyes" transform="matrix(1,0,0,1,-2.97655,33.8566)">
                <g transform="matrix(141.604,0,0,141.604,343.726,436.089)">
                    <path d="M0.342,-0.315C0.458,-0.315 0.449,-0.25 0.449,-0.295C0.449,-0.327 0.44,-0.352 0.422,-0.371C0.403,-0.39 0.378,-0.399 0.346,-0.399C0.308,-0.399 0.277,-0.385 0.253,-0.357C0.229,-0.329 0.217,-0.292 0.217,-0.247C0.217,-0.215 0.245,-0.314 0.342,-0.315Z" style="fill:rgb(48,49,50);fill-rule:nonzero;"/>
                </g>
                <g transform="matrix(-141.604,0,0,141.604,553.553,436.089)">
                    <path d="M0.342,-0.315C0.458,-0.315 0.449,-0.25 0.449,-0.295C0.449,-0.327 0.44,-0.352 0.422,-0.371C0.403,-0.39 0.378,-0.399 0.346,-0.399C0.308,-0.399 0.277,-0.385 0.253,-0.357C0.229,-0.329 0.217,-0.292 0.217,-0.247C0.217,-0.215 0.245,-0.314 0.342,-0.315Z" style="fill:rgb(48,49,50);fill-rule:nonzero;"/>
                </g>
            </g>
            <g id="thanky" transform="matrix(0.900754,0,0,0.900754,44.2303,51.7407)">
                <g transform="matrix(1,0,0,1.34975,-5.45417,-174.375)">
                    <path d="M537.493,456.764L364.741,456.764L364.741,503.308C364.741,510.004 372.079,515.44 381.116,515.44L521.118,515.44C530.156,515.44 537.493,510.004 537.493,503.308L537.493,456.764Z" style="fill:rgb(246,245,235);"/>
                </g>
                <g transform="matrix(0.754039,0,0,0.480527,57.7903,111.469)">
                    <g transform="matrix(1.11018,0,0,1.11018,52.17,-6.74085)">
                        <rect x="313.167" y="629.735" width="41.273" height="43.835" style="fill:rgb(75,56,92);"/>
                    </g>
                    <g transform="matrix(1.11018,0,0,1.11018,97.9904,-6.74085)">
                        <rect x="313.167" y="629.735" width="41.273" height="43.835" style="fill:rgb(60,85,107);"/>
                    </g>
                    <g transform="matrix(1.11018,0,0,1.11018,143.811,-6.74085)">
                        <rect x="313.167" y="629.735" width="41.273" height="43.835" style="fill:rgb(90,158,122);"/>
                    </g>
                    <g transform="matrix(1.11018,0,0,1.11018,189.631,-6.74085)">
                        <rect x="313.167" y="629.735" width="41.273" height="43.835" style="fill:rgb(242,255,141);"/>
                    </g>
                    <g transform="matrix(1.11018,0,0,1.11018,235.451,-6.74085)">
                        <rect x="313.167" y="629.735" width="41.273" height="43.835" style="fill:rgb(248,217,81);"/>
                    </g>
                </g>
                <g transform="matrix(1.11018,0,0,1.11018,52.17,-6.74085)">
                    <path d="M435.494,404.331C435.494,402.536 434.038,401.081 432.244,401.081L276.637,401.081C274.842,401.081 273.387,402.536 273.387,404.331L273.387,460.919C273.387,470.854 281.452,478.919 291.386,478.919C291.386,478.919 417.494,478.919 417.494,478.919C427.428,478.919 435.494,470.854 435.494,460.919C435.494,460.919 435.494,404.331 435.494,404.331ZM428.994,430.479L428.994,460.919C428.994,467.266 423.841,472.419 417.494,472.419L291.386,472.419C285.04,472.419 279.887,467.266 279.887,460.919L279.887,430.479L428.994,430.479ZM428.994,423.979L279.887,423.979L279.887,407.581L428.994,407.581L428.994,423.979Z" style="fill:rgb(48,49,50);"/>
                </g>
            </g>
        </g>
        <g class="Logo__wordmark" transform="matrix(1.18712,0,0,1.18712,-12.262,-35.9642)">
            <g transform="matrix(158.631,0,0,159.832,442.916,450)">
                <path d="M0.273,-0.543L0.058,-0.543L0.09,-0.7L0.738,-0.7L0.706,-0.543L0.471,-0.543L0.362,-0L0.164,-0L0.273,-0.543Z" style="fill:rgb(48,49,50);fill-rule:nonzero;"/>
            </g>
            <g transform="matrix(150.785,0,0,150.785,540.433,450)">
                <path d="M0.454,-0.551C0.513,-0.551 0.56,-0.535 0.596,-0.503C0.632,-0.471 0.65,-0.425 0.65,-0.365C0.65,-0.343 0.648,-0.321 0.643,-0.3L0.583,-0L0.393,-0L0.449,-0.282C0.452,-0.293 0.453,-0.305 0.453,-0.318C0.453,-0.366 0.428,-0.39 0.378,-0.39C0.345,-0.39 0.317,-0.38 0.296,-0.36C0.275,-0.339 0.26,-0.309 0.251,-0.268L0.197,-0L0.007,-0L0.155,-0.742L0.345,-0.742L0.296,-0.497C0.342,-0.533 0.395,-0.551 0.454,-0.551Z" style="fill:rgb(48,49,50);fill-rule:nonzero;"/>
            </g>
            <g transform="matrix(150.785,0,0,150.785,639.046,450)">
                <path d="M0.688,-0.542L0.58,-0L0.4,-0L0.411,-0.051C0.368,-0.011 0.315,0.009 0.254,0.009C0.214,0.009 0.177,-0.001 0.142,-0.021C0.107,-0.04 0.078,-0.069 0.057,-0.106C0.036,-0.143 0.025,-0.187 0.025,-0.238C0.025,-0.297 0.038,-0.35 0.065,-0.398C0.091,-0.445 0.127,-0.483 0.172,-0.51C0.217,-0.537 0.266,-0.551 0.319,-0.551C0.398,-0.551 0.453,-0.526 0.485,-0.477L0.498,-0.542L0.688,-0.542ZM0.32,-0.144C0.358,-0.144 0.389,-0.158 0.413,-0.186C0.437,-0.214 0.449,-0.25 0.449,-0.295C0.449,-0.327 0.44,-0.352 0.422,-0.371C0.403,-0.39 0.378,-0.399 0.346,-0.399C0.308,-0.399 0.277,-0.385 0.253,-0.357C0.229,-0.329 0.217,-0.292 0.217,-0.247C0.217,-0.215 0.226,-0.19 0.245,-0.172C0.263,-0.153 0.288,-0.144 0.32,-0.144Z" style="fill:rgb(48,49,50);fill-rule:nonzero;"/>
            </g>
            <g transform="matrix(150.785,0,0,150.785,731.779,450)">
                <path d="M0.454,-0.551C0.513,-0.551 0.561,-0.535 0.597,-0.504C0.632,-0.472 0.65,-0.426 0.65,-0.367C0.65,-0.345 0.648,-0.323 0.643,-0.3L0.583,-0L0.393,-0L0.449,-0.282C0.452,-0.293 0.453,-0.305 0.453,-0.318C0.453,-0.366 0.428,-0.39 0.378,-0.39C0.345,-0.39 0.317,-0.38 0.296,-0.36C0.275,-0.339 0.26,-0.309 0.251,-0.268L0.197,-0L0.007,-0L0.115,-0.542L0.295,-0.542L0.284,-0.486C0.307,-0.508 0.334,-0.524 0.363,-0.535C0.392,-0.546 0.423,-0.551 0.454,-0.551Z" style="fill:rgb(48,49,50);fill-rule:nonzero;"/>
            </g>
            <g transform="matrix(150.785,0,0,150.785,825.328,450)">
                <path d="M0.449,-0.302L0.631,-0L0.409,-0L0.298,-0.185L0.22,-0.117L0.197,-0L0.007,-0L0.155,-0.742L0.345,-0.742L0.268,-0.357L0.487,-0.542L0.727,-0.542L0.449,-0.302Z" style="fill:rgb(48,49,50);fill-rule:nonzero;"/>
            </g>
            <g transform="matrix(150.785,0,0,150.785,923.099,450)">
                <path d="M0.686,-0.542L0.339,0.024C0.31,0.07 0.283,0.106 0.257,0.132C0.23,0.157 0.202,0.175 0.173,0.187C0.144,0.198 0.109,0.203 0.07,0.203C0.041,0.203 0.013,0.199 -0.016,0.19C-0.044,0.181 -0.066,0.17 -0.083,0.156L0.002,0.022C0.026,0.043 0.054,0.053 0.086,0.053C0.103,0.053 0.118,0.049 0.13,0.042C0.142,0.034 0.154,0.021 0.166,0.004L0.043,-0.542L0.232,-0.542L0.3,-0.209L0.5,-0.542L0.686,-0.542Z" style="fill:rgb(48,49,50);fill-rule:nonzero;"/>
            </g>
        </g>
    </g>
</svg>
