<?xml version="1.0" encoding="UTF-8" standalone="no"?>
<!DOCTYPE svg PUBLIC "-//W3C//DTD SVG 1.1//EN" "http://www.w3.org/Graphics/SVG/1.1/DTD/svg11.dtd">
<svg width="100%" height="100%" viewBox="0 0 682 170" version="1.1" xmlns="http://www.w3.org/2000/svg" xmlns:xlink="http://www.w3.org/1999/xlink" xml:space="preserve" xmlns:serif="http://www.serif.com/" style="fill-rule:evenodd;clip-rule:evenodd;stroke-linejoin:round;stroke-miterlimit:2;">
    <g transform="matrix(1,0,0,1,-524.456,-365.423)">
        <g id="Wordmark" transform="matrix(1.18712,0,0,1.18712,-12.262,-35.9642)">
            <g transform="matrix(158.631,0,0,159.832,442.916,450)">
                <path d="M0.273,-0.543L0.058,-0.543L0.09,-0.7L0.738,-0.7L0.706,-0.543L0.471,-0.543L0.362,-0L0.164,-0L0.273,-0.543Z" />
            </g>
            <g transform="matrix(150.785,0,0,150.785,540.433,450)">
                <path d="M0.454,-0.551C0.513,-0.551 0.56,-0.535 0.596,-0.503C0.632,-0.471 0.65,-0.425 0.65,-0.365C0.65,-0.343 0.648,-0.321 0.643,-0.3L0.583,-0L0.393,-0L0.449,-0.282C0.452,-0.293 0.453,-0.305 0.453,-0.318C0.453,-0.366 0.428,-0.39 0.378,-0.39C0.345,-0.39 0.317,-0.38 0.296,-0.36C0.275,-0.339 0.26,-0.309 0.251,-0.268L0.197,-0L0.007,-0L0.155,-0.742L0.345,-0.742L0.296,-0.497C0.342,-0.533 0.395,-0.551 0.454,-0.551Z" />
            </g>
            <g transform="matrix(150.785,0,0,150.785,639.046,450)">
                <path d="M0.688,-0.542L0.58,-0L0.4,-0L0.411,-0.051C0.368,-0.011 0.315,0.009 0.254,0.009C0.214,0.009 0.177,-0.001 0.142,-0.021C0.107,-0.04 0.078,-0.069 0.057,-0.106C0.036,-0.143 0.025,-0.187 0.025,-0.238C0.025,-0.297 0.038,-0.35 0.065,-0.398C0.091,-0.445 0.127,-0.483 0.172,-0.51C0.217,-0.537 0.266,-0.551 0.319,-0.551C0.398,-0.551 0.453,-0.526 0.485,-0.477L0.498,-0.542L0.688,-0.542ZM0.32,-0.144C0.358,-0.144 0.389,-0.158 0.413,-0.186C0.437,-0.214 0.449,-0.25 0.449,-0.295C0.449,-0.327 0.44,-0.352 0.422,-0.371C0.403,-0.39 0.378,-0.399 0.346,-0.399C0.308,-0.399 0.277,-0.385 0.253,-0.357C0.229,-0.329 0.217,-0.292 0.217,-0.247C0.217,-0.215 0.226,-0.19 0.245,-0.172C0.263,-0.153 0.288,-0.144 0.32,-0.144Z" />
            </g>
            <g transform="matrix(150.785,0,0,150.785,731.779,450)">
                <path d="M0.454,-0.551C0.513,-0.551 0.561,-0.535 0.597,-0.504C0.632,-0.472 0.65,-0.426 0.65,-0.367C0.65,-0.345 0.648,-0.323 0.643,-0.3L0.583,-0L0.393,-0L0.449,-0.282C0.452,-0.293 0.453,-0.305 0.453,-0.318C0.453,-0.366 0.428,-0.39 0.378,-0.39C0.345,-0.39 0.317,-0.38 0.296,-0.36C0.275,-0.339 0.26,-0.309 0.251,-0.268L0.197,-0L0.007,-0L0.115,-0.542L0.295,-0.542L0.284,-0.486C0.307,-0.508 0.334,-0.524 0.363,-0.535C0.392,-0.546 0.423,-0.551 0.454,-0.551Z" />
            </g>
            <g transform="matrix(150.785,0,0,150.785,825.328,450)">
                <path d="M0.449,-0.302L0.631,-0L0.409,-0L0.298,-0.185L0.22,-0.117L0.197,-0L0.007,-0L0.155,-0.742L0.345,-0.742L0.268,-0.357L0.487,-0.542L0.727,-0.542L0.449,-0.302Z" />
            </g>
            <g transform="matrix(150.785,0,0,150.785,923.099,450)">
                <path d="M0.686,-0.542L0.339,0.024C0.31,0.07 0.283,0.106 0.257,0.132C0.23,0.157 0.202,0.175 0.173,0.187C0.144,0.198 0.109,0.203 0.07,0.203C0.041,0.203 0.013,0.199 -0.016,0.19C-0.044,0.181 -0.066,0.17 -0.083,0.156L0.002,0.022C0.026,0.043 0.054,0.053 0.086,0.053C0.103,0.053 0.118,0.049 0.13,0.042C0.142,0.034 0.154,0.021 0.166,0.004L0.043,-0.542L0.232,-0.542L0.3,-0.209L0.5,-0.542L0.686,-0.542Z" />
            </g>
        </g>
    </g>
</svg>
